# xmcd
#
# Track frame offsets:
#	150
#	19140
#	38082
#	57055
#
# Disc length: 1010 seconds
#
# Revision: 0
# Processed by: cddbd v1.5.1PL0 Copyright (c) Steve Scherf et al.
# Submitted via: dBpowerAMP V4.0
#
DISCID=2703f004
DTITLE=Kumiko Kato - Thinking of You
DYEAR=1900
DGENRE=R&B
TTITLE0=Thinking of You - Japanese Version
TTITLE1=Thinking of You - English Version
TTITLE2=Japanese TV Mix
TTITLE3=English TV Mix
EXTD=Kumiko Kato\nThinking of You [single]\n\nMe: Alita Schratwieser
EXTT0=
EXTT1=
EXTT2=
EXTT3=
PLAYORDER=
